<svg width="29" height="27" viewBox="0 0 29 27" fill="none" xmlns="http://www.w3.org/2000/svg">
  <path d="M21.906.104c-2.364 0-4.201 1.536-5.375 3.261-1.315 1.932-2.61 5.171-3.098 6.454-.128.335-.066.716.158.99l3.224 3.94c.101.124.115.3.04.442l-2.693 4.895a.835.835 0 0 0-.073.612l1.479 5.576c.066.246.345.343.536.186 3.148-2.595 11.203-9.715 12.526-15.667C30.278 3.37 26.136.103 21.906.103Z" fill="#5A5A5A"/>
  <path d="m14.598 14.94-3.581-4.242 2.68-5.796c.193-.42.159-.917-.104-1.296C12.495 2.017 10.517.104 7.352.104 3.287.104-1.346 3.386.365 10.847c1.322 5.76 9.245 12.83 12.753 15.658.088.072.22.012.228-.105l.15-1.776-1.494-4.39 2.655-4.68a.54.54 0 0 0-.059-.615ZM21.799.104c-1.59 0-2.941.676-4.02 1.63.194-.146 1.465-1.076 2.888-1.076 3.886 0 7.364 3.055 5.794 10.118-1.256 5.648-8.171 12.42-11.055 15.587a.336.336 0 0 0 .506.097c3.195-2.595 11.37-9.715 12.713-15.667C30.295 3.37 26.091.103 21.799.103Z" fill="#5A5A5A"/>
  <path d="M17.84 6.596a.618.618 0 0 1-.58-.841c.293-.76.671-1.496 1.126-2.15.673-.967 1.953-1.53 2.764-.944.83.599.723 1.797.14 2.376-1.253 1.242-2.828 1.559-3.45 1.559ZM3.153 4.133c.906-1.142 2.526-2.087 3.898-.998.742.588.418 1.794-.246 2.301-.967.742-1.808 1.189-2.398 2.35a7.15 7.15 0 0 0-.674 2.241.316.316 0 0 1-.592.112c-1.02-1.828-1.31-4.341.012-6.006Z" fill="#5A5A5A"/>
  <path d="m12.005 20.282 2.651-4.692a.546.546 0 0 0-.056-.619l-3.579-4.249 2.852-6.077c.193-.42.159-.918-.103-1.299C12.674 1.754 10.522.104 7.363.104 4.91.104 2.25 1.308.906 3.914 2.356 2.05 4.592 1.175 6.68 1.175c3.16 0 5.135 1.918 6.23 3.51.263.381.297.88.104 1.3l-2.675 5.809 3.578 4.251a.547.547 0 0 1 .056.619l-2.65 4.69s1.446 3.956 1.982 5.182c0 0 .042 0 .073-.213 0 0 .216-1.564.098-1.937-.11-.356-1.47-4.104-1.47-4.104Z" fill="#5A5A5A"/>
</svg>
