<svg width="39" height="39" viewBox="0 0 39 39" fill="none" xmlns="http://www.w3.org/2000/svg">
  <g opacity="0.8">
    <path d="M33.5 19.5C33.5 19.7917 33.3934 20.0441 33.1803 20.2572C32.9671 20.4704 32.7147 20.5769 32.4231 20.5769H20.5769V32.4231C20.5769 32.7147 20.4704 32.9671 20.2572 33.1803C20.0441 33.3934 19.7917 33.5 19.5 33.5C19.2083 33.5 18.9559 33.3934 18.7428 33.1803C18.5296 32.9671 18.4231 32.7147 18.4231 32.4231V20.5769H6.57692C6.28526 20.5769 6.03285 20.4704 5.81971 20.2572C5.60657 20.0441 5.5 19.7917 5.5 19.5C5.5 19.2083 5.60657 18.9559 5.81971 18.7428C6.03285 18.5296 6.28526 18.4231 6.57692 18.4231H18.4231V6.57692C18.4231 6.28526 18.5296 6.03285 18.7428 5.81971C18.9559 5.60657 19.2083 5.5 19.5 5.5C19.7917 5.5 20.0441 5.60657 20.2572 5.81971C20.4704 6.03285 20.5769 6.28526 20.5769 6.57692V18.4231H32.4231C32.7147 18.4231 32.9671 18.5296 33.1803 18.7428C33.3934 18.9559 33.5 19.2083 33.5 19.5Z" fill="white"/>
    <rect x="1.5" y="1.5" width="36" height="36" rx="9" stroke="white" stroke-width="2"/>
  </g>
</svg>
