<svg width="28" height="28" viewBox="0 0 28 28" fill="none" xmlns="http://www.w3.org/2000/svg">
  <path clip-rule="evenodd" d="M9.841 23.23 4.673 26.6l.905-5.904c-2.148-2.044-3.347-4.884-3.347-8.022C2.231 6.447 6.947 1.4 14.438 1.4c7.49 0 12.206 5.047 12.206 11.274 0 6.226-4.716 11.273-12.206 11.273-1.68 0-3.219-.253-4.597-.717Z" stroke="#5A5A5A" stroke-width="2" stroke-linecap="round" stroke-linejoin="round"/>
  <path fill-rule="evenodd" clip-rule="evenodd" d="M9.018 11.2c.75 0 1.357.627 1.357 1.4 0 .718-.524 1.31-1.198 1.39l-.159.01c-.755 0-1.362-.627-1.362-1.4 0-.718.524-1.31 1.198-1.39l.164-.01Zm5.425 0c.75 0 1.357.627 1.357 1.4 0 .718-.524 1.31-1.199 1.39l-.158.01c-.755 0-1.362-.627-1.362-1.4 0-.718.524-1.31 1.198-1.39l.164-.01Zm5.426 0c.749 0 1.356.627 1.356 1.4 0 .718-.524 1.31-1.198 1.39l-.158.01c-.755 0-1.363-.627-1.363-1.4 0-.718.524-1.31 1.198-1.39l.165-.01Z" fill="#5A5A5A"/>
</svg>
