<svg width="56" height="46" viewBox="0 0 56 46" fill="none" xmlns="http://www.w3.org/2000/svg">
  <path d="M12 2v19.996h.023l-.023.023L19.982 30H26v-2h-4.006v-7.998h-7.998V4.007h27.993V14.01h2.007c.002.037.004-4.012.004-10.002v-2h-.008V2H12Zm27.997 12.009-2 2L28 26.005v3.999h3.999l2-2 7.998-7.998 2-2-4-3.998Zm-.562 3.374 1.124 1.187-9.935 9.998-1.187-1.188 9.998-9.997ZM11.402 34.047V44h-2.05v-9.953h2.05Zm3.965 4.252v1.6h-4.525v-1.6h4.525Zm.479-4.252v1.606h-5.004v-1.606h5.004Zm.601 6.33v-.144c0-.542.078-1.04.233-1.497.155-.46.38-.859.676-1.196.297-.337.661-.6 1.094-.786.433-.191.93-.287 1.49-.287.561 0 1.06.096 1.497.287a3.02 3.02 0 0 1 1.101.786c.3.337.529.736.684 1.196.155.456.232.955.232 1.497v.144a4.66 4.66 0 0 1-.232 1.497 3.489 3.489 0 0 1-.684 1.196c-.296.338-.66.6-1.094.786-.433.187-.93.28-1.49.28-.56 0-1.06-.093-1.497-.28a3.097 3.097 0 0 1-1.1-.786 3.548 3.548 0 0 1-.677-1.196 4.663 4.663 0 0 1-.233-1.497Zm1.969-.144v.144c0 .31.027.6.082.868.055.269.141.506.26.711.123.2.282.358.478.472.196.114.436.17.718.17.273 0 .508-.056.704-.17a1.3 1.3 0 0 0 .472-.472 2.37 2.37 0 0 0 .26-.71c.059-.27.088-.56.088-.869v-.144c0-.3-.03-.583-.088-.847a2.235 2.235 0 0 0-.267-.711 1.324 1.324 0 0 0-.472-.492 1.35 1.35 0 0 0-.71-.178c-.279 0-.515.06-.711.178a1.4 1.4 0 0 0-.472.492 2.347 2.347 0 0 0-.26.71 4.187 4.187 0 0 0-.082.848Zm8.176-2.05V44h-1.969v-7.397h1.846l.123 1.58Zm-.287 1.859h-.534c0-.547.071-1.04.212-1.477.142-.442.34-.818.595-1.127a2.54 2.54 0 0 1 .91-.718 2.741 2.741 0 0 1 1.189-.253c.346 0 .663.05.95.15.287.1.533.26.738.479.21.219.37.508.479.868.114.36.17.8.17 1.32V44h-1.982v-4.724c0-.328-.045-.583-.137-.765a.768.768 0 0 0-.403-.383 1.574 1.574 0 0 0-.642-.116c-.265 0-.495.052-.69.157-.192.105-.352.25-.48.437a2.064 2.064 0 0 0-.28.643c-.063.246-.095.51-.095.793Zm10.575 2.345V33.5h1.982V44h-1.784l-.198-1.613Zm-4.676-1.996v-.144c0-.565.064-1.078.191-1.538.128-.465.315-.864.561-1.196.246-.333.55-.59.91-.773.36-.182.77-.273 1.23-.273.433 0 .81.09 1.135.273.328.182.606.442.834.78.232.332.419.726.56 1.182.141.451.244.946.308 1.483v.315a7.9 7.9 0 0 1-.308 1.435 4.3 4.3 0 0 1-.56 1.163 2.471 2.471 0 0 1-.834.765c-.329.183-.712.274-1.149.274-.46 0-.87-.094-1.23-.28a2.61 2.61 0 0 1-.903-.787 3.768 3.768 0 0 1-.553-1.19 5.513 5.513 0 0 1-.192-1.49Zm1.969-.144v.144c0 .305.023.59.068.854.05.264.13.5.24.704.113.2.26.358.437.472.182.11.403.164.663.164.337 0 .615-.075.834-.226.219-.155.385-.367.5-.635.118-.27.186-.58.204-.93v-.896a3.219 3.219 0 0 0-.123-.772 1.682 1.682 0 0 0-.287-.595 1.268 1.268 0 0 0-.465-.383 1.437 1.437 0 0 0-.65-.136c-.255 0-.473.059-.656.178-.182.113-.33.27-.444.471-.11.2-.191.438-.246.711-.05.269-.075.56-.075.875Zm5.913.13v-.144c0-.542.077-1.04.232-1.497.155-.46.38-.859.677-1.196.296-.337.66-.6 1.094-.786.433-.191.93-.287 1.49-.287.56 0 1.06.096 1.497.287.438.187.804.449 1.1.786.301.337.53.736.684 1.196.155.456.233.955.233 1.497v.144a4.66 4.66 0 0 1-.233 1.497 3.49 3.49 0 0 1-.683 1.196 3.02 3.02 0 0 1-1.094.786c-.433.187-.93.28-1.49.28-.56 0-1.06-.093-1.497-.28a3.097 3.097 0 0 1-1.1-.786 3.548 3.548 0 0 1-.678-1.196 4.663 4.663 0 0 1-.232-1.497Zm1.969-.144v.144c0 .31.027.6.082.868.054.269.141.506.26.711.123.2.282.358.478.472.196.114.435.17.718.17.273 0 .508-.056.704-.17a1.3 1.3 0 0 0 .472-.472 2.35 2.35 0 0 0 .26-.71c.059-.27.088-.56.088-.869v-.144c0-.3-.03-.583-.089-.847a2.237 2.237 0 0 0-.266-.711 1.324 1.324 0 0 0-.472-.492 1.349 1.349 0 0 0-.71-.178c-.279 0-.516.06-.712.178a1.399 1.399 0 0 0-.471.492 2.347 2.347 0 0 0-.26.71 4.18 4.18 0 0 0-.082.848Z" fill="#fff"/>
</svg>
