<svg width="33" height="27" viewBox="0 0 33 27" fill="none" xmlns="http://www.w3.org/2000/svg">
  <g clip-path="url(#a)">
    <path d="m31.615 14.255-5.76-2.25a1.55 1.55 0 0 0-1.11 0l-5.76 2.25c-.535.21-.885.7-.885 1.245 0 5.58 3.435 9.44 6.645 10.695.48.185.9.08 1.11 0 2.565-1 6.645-4.47 6.645-10.695 0-.545-.35-1.035-.885-1.245ZM25.3 23.82v-9.455l4.775 1.865c-.28 4.355-3.045 6.77-4.775 7.59ZM11.7 13.5a6.4 6.4 0 0 0 6.4-6.4 6.4 6.4 0 1 0-12.8 0 6.4 6.4 0 0 0 6.4 6.4Zm4.8 2c0-.125.04-.24.055-.36-.125-.005-.245-.04-.375-.04h-.835a8.713 8.713 0 0 1-7.29 0H7.22C3.51 15.1.5 18.11.5 21.82v2.08a2.4 2.4 0 0 0 2.4 2.4h17.6c.34 0 .665-.075.96-.2-2.7-2.145-4.96-5.835-4.96-10.6Z" fill="#fff"/>
  </g>
  <defs>
    <clipPath id="a">
      <path fill="#fff" d="M.5.7h32v25.6H.5z"/>
    </clipPath>
  </defs>
</svg>
