<svg width="32" height="32" viewBox="0 0 32 32" fill="none" xmlns="http://www.w3.org/2000/svg">
  <g clip-path="url(#a)">
    <path d="M4.513 16H1.231l14.77-14.77L30.768 16h-3.282M4.513 16v11.487a3.282 3.282 0 0 0 3.282 3.282h16.41a3.282 3.282 0 0 0 3.283-3.282V16" stroke="#fff" stroke-width="2" stroke-linecap="round" stroke-linejoin="round"/>
    <path d="M11.077 30.77v-9.847a3.282 3.282 0 0 1 3.282-3.282h3.282a3.282 3.282 0 0 1 3.282 3.282v9.846" stroke="#fff" stroke-width="2" stroke-linecap="round" stroke-linejoin="round"/>
    <path fill="#fff" d="M5 14h7v16H5z"/>
    <path fill="#fff" d="M5 18v-4h19v4z"/>
    <path fill="#fff" d="M20 15h7v15h-7z"/>
    <path d="m16 2 13.856 13.5H2.144L16 2Z" fill="#fff"/>
  </g>
  <defs>
    <clipPath id="a">
      <path fill="#fff" d="M0 0h32v32H0z"/>
    </clipPath>
  </defs>
</svg>
