<svg width="28" height="26" viewBox="0 0 28 26" fill="none" xmlns="http://www.w3.org/2000/svg">
  <g clip-path="url(#a)" fill="#1C76A9">
    <path d="M20.998-.007c-5.113 0-6.991 5.292-6.991 5.292s-1.853-5.292-7-5.292c-3.869 0-8.279 3.106-6.65 10.166 1.629 7.06 13.664 15.855 13.664 15.855S26.012 17.22 27.643 10.16C29.272 3.1 25.179-.006 20.998-.006Z"/>
    <path d="M6.218.52c4.014 0 6.006 4.37 6.65 6.14.091.254.439.26.544.015L14 5.283c-.828-2.68-3.106-5.29-6.993-5.29-1.61 0-3.31.539-4.634 1.676A6.989 6.989 0 0 1 6.218.52Zm14.78-.527c-1.235 0-2.36.272-3.237.82.616-.241 1.38-.293 2.135-.293 3.783 0 7.168 2.905 5.64 9.62-1.311 5.765-8.974 12.759-11.314 15.427-.15.17-.201.445-.201.445s11.991-8.795 13.622-15.855C29.272 3.099 25.186-.007 20.998-.007Z"/>
    <path d="M3.043 3.74c.875-1.107 2.438-2.022 3.763-.967.717.57.404 1.737-.238 2.229-.933.718-1.745 1.15-2.314 2.276a6.94 6.94 0 0 0-.651 2.17.305.305 0 0 1-.572.108c-.985-1.768-1.265-4.202.012-5.817ZM17.07 6.065c-.41 0-.7-.402-.55-.79a9.56 9.56 0 0 1 1.069-2.018c.639-.908 1.855-1.437 2.625-.886.788.562.686 1.687.133 2.231-1.188 1.165-2.686 1.463-3.277 1.463Z"/>
  </g>
  <defs>
    <clipPath id="a">
      <path fill="#fff" d="M0 0h28v26H0z"/>
    </clipPath>
  </defs>
</svg>
