<svg width="33" height="33" viewBox="0 0 33 33" fill="none" xmlns="http://www.w3.org/2000/svg">
  <path d="M23.25 1.5C19.262 1.5 16 4.801 16 8.838c0 1.213.463 2.45 1.057 3.821a43.12 43.12 0 0 0 2.115 4.166 76.129 76.129 0 0 0 3.096 4.93l.982 1.452.982-1.452s1.557-2.245 3.096-4.93a43.12 43.12 0 0 0 2.115-4.166c.594-1.37 1.057-2.608 1.057-3.821C30.5 4.8 27.238 1.5 23.25 1.5ZM11.129 3.87 1.5 8.034V31.5l9.704-4.242 9.667 3.669L30.5 26.76V16.1c-.77 1.495-1.624 2.928-2.417 4.203v4.854l-6.041 2.599v-1.988l-1.775-2.598c-.189-.277-.41-.607-.642-.956v5.656l-7.25-2.751V6.927l1.322.497c.118-.827.33-1.625.642-2.37l-3.21-1.185Zm12.121.076c2.681 0 4.833 2.178 4.833 4.892 0 .473-.292 1.59-.83 2.828-.538 1.237-1.298 2.641-2.04 3.936-.986 1.72-1.41 2.331-1.963 3.172-.552-.84-.977-1.452-1.963-3.172-.742-1.295-1.502-2.7-2.04-3.936-.538-1.238-.83-2.355-.83-2.828 0-2.714 2.152-4.892 4.833-4.892ZM9.958 7.003v18.153l-6.041 2.599V9.64l6.041-2.637Zm13.292 0c-1 0-1.813.822-1.813 1.835 0 1.012.812 1.834 1.813 1.834 1 0 1.813-.822 1.813-1.834a1.824 1.824 0 0 0-1.813-1.835Z" fill="#fff"/>
</svg>
