<svg width="56" height="46" viewBox="0 0 56 46" fill="none" xmlns="http://www.w3.org/2000/svg">
  <g clip-path="url(#a)">
    <path d="M21.977 9.855 17.336 24h-3.738l6.34-17.063h2.378l-.34 2.918ZM25.832 24 21.18 9.855l-.375-2.918h2.402L29.582 24h-3.75Zm-.21-6.352v2.754h-9.013v-2.754h9.012Zm12.175 3.493v-5.649c0-.406-.066-.754-.2-1.043a1.484 1.484 0 0 0-.62-.691c-.274-.164-.63-.246-1.067-.246-.375 0-.7.066-.972.199a1.408 1.408 0 0 0-.633.55 1.522 1.522 0 0 0-.223.833h-3.375c0-.54.125-1.051.375-1.535.25-.485.613-.91 1.09-1.278a5.381 5.381 0 0 1 1.7-.879c.663-.21 1.405-.316 2.226-.316.984 0 1.859.164 2.625.492.765.328 1.367.82 1.804 1.477.446.656.668 1.476.668 2.46v5.426c0 .696.043 1.266.13 1.711.085.438.21.82.374 1.149V24h-3.41c-.164-.344-.289-.773-.375-1.29a10.612 10.612 0 0 1-.117-1.57Zm.445-4.864.024 1.91h-1.887c-.445 0-.832.051-1.16.153a2.159 2.159 0 0 0-.809.433c-.21.18-.367.391-.469.633-.093.242-.14.508-.14.797 0 .29.066.55.199.785.133.227.324.407.574.54.25.124.543.187.88.187.507 0 .948-.102 1.323-.305s.664-.453.867-.75c.212-.297.32-.578.329-.844l.89 1.43c-.125.32-.297.652-.515.996-.211.344-.48.668-.809.973a4.172 4.172 0 0 1-1.184.738c-.46.188-1.007.281-1.64.281-.805 0-1.535-.16-2.192-.48a3.994 3.994 0 0 1-1.546-1.348 3.537 3.537 0 0 1-.563-1.968c0-.665.125-1.254.375-1.77s.617-.95 1.102-1.3c.492-.36 1.105-.63 1.84-.81.734-.187 1.585-.28 2.554-.28h1.957Z" fill="#fff"/>
  </g>
  <path d="M15.743 34.047V44H13.7v-9.953h2.044Zm3.063 0v1.606h-8.121v-1.606h8.12Zm3.807 10.09a4.13 4.13 0 0 1-1.545-.274 3.394 3.394 0 0 1-1.162-.772 3.434 3.434 0 0 1-.724-1.142 3.844 3.844 0 0 1-.253-1.394v-.274c0-.56.08-1.073.239-1.538.16-.465.387-.868.684-1.21a2.99 2.99 0 0 1 1.093-.786 3.59 3.59 0 0 1 1.45-.28c.524 0 .989.086 1.394.26.406.173.745.419 1.019.738.278.319.487.702.628 1.148.142.442.212.934.212 1.477v.82H19.77v-1.312h3.944v-.15c0-.274-.05-.518-.15-.732a1.162 1.162 0 0 0-.438-.52c-.196-.127-.447-.191-.752-.191-.26 0-.483.057-.67.17-.187.115-.34.274-.458.48-.114.204-.2.446-.26.724a4.608 4.608 0 0 0-.082.902v.274c0 .296.041.57.123.82.087.25.208.467.363.65.16.182.35.323.574.423.228.1.485.15.772.15.356 0 .686-.068.991-.204.31-.142.577-.354.8-.636l.957 1.039a2.914 2.914 0 0 1-.635.643 3.395 3.395 0 0 1-.957.505 3.94 3.94 0 0 1-1.279.192Zm5.742-7.534 1.224 2.25 1.258-2.25h2.098l-2.091 3.617L33.03 44h-2.105l-1.333-2.379L28.26 44h-2.106l2.188-3.78-2.092-3.617h2.105Zm9.16 0v1.395H33.21v-1.395h4.307Zm-3.24-1.825h1.97v6.994c0 .214.027.378.081.492.06.114.146.193.26.239.114.04.257.062.43.062.124 0 .233-.005.329-.014.1-.014.184-.028.253-.041l.007 1.449c-.17.055-.351.098-.547.13a4.056 4.056 0 0 1-.65.048c-.433 0-.811-.07-1.135-.212a1.563 1.563 0 0 1-.738-.697c-.173-.32-.26-.739-.26-1.258v-7.192Zm3.87 5.599v-.144c0-.542.077-1.04.232-1.497.155-.46.38-.859.677-1.196.296-.337.66-.6 1.093-.786.433-.191.93-.287 1.49-.287.561 0 1.06.096 1.498.287.437.187.804.449 1.1.786.301.337.529.736.684 1.196.155.456.232.955.232 1.497v.144a4.66 4.66 0 0 1-.232 1.497 3.489 3.489 0 0 1-.684 1.196c-.296.338-.66.6-1.093.786-.433.187-.93.28-1.49.28-.561 0-1.06-.093-1.498-.28a3.097 3.097 0 0 1-1.1-.786 3.548 3.548 0 0 1-.677-1.196 4.663 4.663 0 0 1-.233-1.497Zm1.968-.144v.144c0 .31.028.6.082.868.055.269.142.506.26.711.123.2.283.358.479.472.196.114.435.17.717.17.274 0 .508-.056.704-.17a1.3 1.3 0 0 0 .472-.472c.119-.205.205-.442.26-.71.06-.27.089-.56.089-.869v-.144c0-.3-.03-.583-.09-.847a2.237 2.237 0 0 0-.266-.711 1.324 1.324 0 0 0-.471-.492 1.349 1.349 0 0 0-.711-.178c-.278 0-.515.06-.711.178a1.399 1.399 0 0 0-.472.492 2.347 2.347 0 0 0-.26.71 4.18 4.18 0 0 0-.082.848Z" fill="#fff"/>
  <defs>
    <clipPath id="a">
      <path fill="#fff" d="M12 0h32v32H12z"/>
    </clipPath>
  </defs>
</svg>
