<svg width="33" height="33" viewBox="0 0 33 33" fill="none" xmlns="http://www.w3.org/2000/svg">
  <g clip-path="url(#a)" fill="#fff">
    <path d="m31.887 11.625.304-1.594c.301-1.581-.28-3.265-1.549-4.385C27.627 2.984 23.277 1.492 16.87 1.5 10.472 1.508 5.541 3.009 2.8 5.67c-1.16 1.128-1.583 2.798-1.11 4.385l.477 1.595c.444 1.487 1.942 2.481 3.504 2.324l3.131-.315c1.344-.135 1.933-1.26 2.313-2.551.569-1.931.962-3.365.962-3.365 1.466-.549 2.858-.962 4.808-.962 1.95 0 3.37.372 4.807.962 0 0 .377 1.433.962 3.365.43 1.423 1.448 2.425 2.82 2.558l3.15.304c1.582.153 2.979-.85 3.263-2.345Z"/>
    <path d="M25.538 22.646a8.654 8.654 0 1 1-17.307 0 8.654 8.654 0 0 1 17.307 0Zm-8.654-4.807a.962.962 0 0 0-.961.961v3.846a.962.962 0 0 0 1.923 0V18.8a.962.962 0 0 0-.962-.961Zm0 9.856a1.202 1.202 0 1 0 0-2.404 1.202 1.202 0 0 0 0 2.404Z"/>
  </g>
  <defs>
    <clipPath id="a">
      <path fill="#fff" d="M.5.5h32v32H.5z"/>
    </clipPath>
  </defs>
</svg>
