<svg width="56" height="46" viewBox="0 0 56 46" fill="none" xmlns="http://www.w3.org/2000/svg">
  <g clip-path="url(#a)">
    <path d="M28.003 1.602V1.6L42.4 16M28.003 1.602l-1.326 6.89a7.543 7.543 0 0 0 8.83 8.833L42.4 16M28.003 1.602 42.4 16M28.003 1.602 28 1.6c-7.953 0-14.4 6.447-14.4 14.4S20.047 30.4 28 30.4 42.4 23.953 42.4 16" stroke="#fff" stroke-width="2" stroke-linecap="round" stroke-linejoin="round"/>
  </g>
  <path d="M8.271 41.395a1.31 1.31 0 0 0-.082-.478.904.904 0 0 0-.287-.397 2.546 2.546 0 0 0-.594-.362 8.404 8.404 0 0 0-.992-.369c-.45-.146-.88-.31-1.285-.492a5.278 5.278 0 0 1-1.066-.636 2.865 2.865 0 0 1-.725-.854 2.36 2.36 0 0 1-.26-1.128c0-.415.092-.791.274-1.128.182-.342.437-.634.766-.875a3.637 3.637 0 0 1 1.162-.568 5.26 5.26 0 0 1 1.483-.198c.734 0 1.374.132 1.92.397.548.264.972.626 1.272 1.087.306.46.458.986.458 1.579H8.278c0-.292-.061-.547-.184-.766a1.248 1.248 0 0 0-.547-.526c-.242-.128-.547-.192-.916-.192-.356 0-.652.055-.889.164a1.185 1.185 0 0 0-.533.431 1.06 1.06 0 0 0-.178.601c0 .17.041.322.123.459.087.136.214.264.383.382.169.119.376.23.622.335.246.105.531.208.855.308a9.091 9.091 0 0 1 1.428.554c.415.205.761.435 1.04.69.277.255.487.545.628.868.142.324.212.69.212 1.1 0 .434-.084.821-.253 1.163a2.387 2.387 0 0 1-.731.868 3.44 3.44 0 0 1-1.142.54 5.528 5.528 0 0 1-1.483.185c-.492 0-.978-.064-1.456-.192a4.421 4.421 0 0 1-1.306-.594 2.998 2.998 0 0 1-.93-1.012c-.232-.41-.348-.896-.348-1.456H4.73c0 .31.048.572.144.786.096.214.23.387.403.52.178.132.388.227.63.287.245.059.514.089.806.089.355 0 .647-.05.875-.15a1.09 1.09 0 0 0 .513-.418 1.09 1.09 0 0 0 .17-.602Zm6.946-4.792v1.395H10.91v-1.395h4.307Zm-3.24-1.825h1.968v6.994c0 .214.028.378.082.492.06.114.146.193.26.239.114.04.258.062.43.062.124 0 .233-.005.329-.014.1-.014.184-.028.253-.041l.007 1.449a3.684 3.684 0 0 1-.547.13 4.057 4.057 0 0 1-.65.048c-.433 0-.81-.07-1.134-.212a1.563 1.563 0 0 1-.739-.697c-.173-.32-.26-.739-.26-1.258v-7.192Zm6.439 1.825V44H16.44v-7.397h1.976Zm-2.099-1.927c0-.287.1-.524.301-.711.2-.187.47-.28.807-.28.332 0 .6.093.8.28a.92.92 0 0 1 .307.71.92.92 0 0 1-.307.712c-.2.187-.468.28-.8.28-.337 0-.606-.093-.807-.28a.93.93 0 0 1-.3-.711Zm6.782 7.923c.241 0 .455-.046.642-.137.187-.096.333-.228.438-.397.11-.173.166-.375.17-.608h1.853c-.004.52-.143.982-.417 1.388-.273.4-.64.718-1.1.95-.46.228-.976.342-1.545.342-.575 0-1.076-.096-1.504-.287a2.935 2.935 0 0 1-1.06-.793 3.473 3.473 0 0 1-.636-1.19 4.917 4.917 0 0 1-.212-1.463v-.198c0-.524.071-1.012.212-1.463a3.42 3.42 0 0 1 .636-1.19 2.901 2.901 0 0 1 1.06-.8c.424-.19.92-.286 1.49-.286.606 0 1.137.116 1.593.348.46.233.82.566 1.08.998.264.429.399.937.403 1.525H24.35a1.542 1.542 0 0 0-.158-.67c-.095-.2-.237-.36-.423-.478a1.182 1.182 0 0 0-.677-.185c-.287 0-.522.061-.704.184a1.177 1.177 0 0 0-.424.493c-.1.205-.171.44-.212.704-.037.26-.055.533-.055.82v.198c0 .287.018.563.055.827.036.265.105.5.205.704.105.206.248.367.43.486.183.118.42.178.712.178Zm6.213-9.106V44h-1.968V33.493h1.968Zm4.663 3.11-3.213 3.665-1.723 1.743-.718-1.422 1.367-1.736 1.921-2.25h2.366ZM31.93 44l-2.188-3.418 1.36-1.19L34.2 44h-2.27Zm6.159.137a4.13 4.13 0 0 1-1.545-.274 3.394 3.394 0 0 1-1.162-.772 3.432 3.432 0 0 1-.725-1.142 3.844 3.844 0 0 1-.253-1.394v-.274c0-.56.08-1.073.24-1.538.159-.465.387-.868.683-1.21.3-.342.665-.604 1.094-.786.428-.187.911-.28 1.45-.28.523 0 .988.086 1.394.26a2.73 2.73 0 0 1 1.018.738c.278.319.488.702.63 1.148.14.442.211.934.211 1.477v.82h-5.879v-1.312h3.944v-.15c0-.274-.05-.518-.15-.732a1.161 1.161 0 0 0-.438-.52c-.195-.127-.446-.191-.751-.191-.26 0-.483.057-.67.17a1.32 1.32 0 0 0-.458.48 2.6 2.6 0 0 0-.26.724 4.608 4.608 0 0 0-.082.902v.274c0 .296.04.57.123.82.087.25.207.467.362.65.16.182.351.323.574.423.228.1.486.15.773.15.355 0 .686-.068.991-.204.31-.142.577-.354.8-.636l.957 1.039a2.91 2.91 0 0 1-.636.643 3.395 3.395 0 0 1-.957.505c-.373.128-.8.192-1.278.192Zm6.125-5.92V44h-1.969v-7.397H44.1l.116 1.614Zm2.228-1.661-.034 1.825a4.73 4.73 0 0 0-.349-.034 3.535 3.535 0 0 0-.362-.02c-.278 0-.52.036-.724.108-.2.069-.37.171-.506.308a1.343 1.343 0 0 0-.301.5c-.064.195-.1.418-.11.67l-.396-.124c0-.479.048-.918.144-1.32.095-.405.234-.758.417-1.059.186-.3.414-.533.683-.697a1.74 1.74 0 0 1 .923-.246c.11 0 .221.009.335.027.114.014.207.034.28.062Zm4.93 5.4a.64.64 0 0 0-.124-.383c-.082-.114-.235-.218-.458-.314-.219-.1-.535-.192-.95-.274a7.415 7.415 0 0 1-1.046-.307 3.626 3.626 0 0 1-.834-.458 1.99 1.99 0 0 1-.547-.63 1.748 1.748 0 0 1-.198-.84c0-.31.066-.602.198-.875.137-.273.33-.515.581-.725a2.75 2.75 0 0 1 .93-.499 3.92 3.92 0 0 1 1.244-.184c.643 0 1.194.102 1.654.307.465.206.82.488 1.067.848.25.355.376.761.376 1.217h-1.97c0-.191-.04-.362-.122-.513a.812.812 0 0 0-.37-.362c-.163-.091-.378-.137-.642-.137-.219 0-.408.039-.567.116a.87.87 0 0 0-.37.301.724.724 0 0 0-.123.41c0 .114.023.217.069.308a.76.76 0 0 0 .24.24c.108.072.25.14.423.204.178.06.396.114.656.164.533.11 1.01.253 1.429.431.42.173.752.41.998.71.246.297.37.687.37 1.17 0 .328-.074.629-.22.902a2.18 2.18 0 0 1-.629.718 3.19 3.19 0 0 1-.984.472 4.611 4.611 0 0 1-1.278.164c-.688 0-1.272-.123-1.75-.37-.474-.245-.834-.558-1.08-.936a2.18 2.18 0 0 1-.363-1.176h1.867c.009.27.077.486.205.65.132.164.298.282.499.355.205.073.426.11.663.11.255 0 .467-.035.636-.103a.903.903 0 0 0 .382-.287.694.694 0 0 0 .137-.424Z" fill="#fff"/>
  <defs>
    <clipPath id="a">
      <path fill="#fff" d="M12 0h32v32H12z"/>
    </clipPath>
  </defs>
</svg>
