<svg width="32" height="32" viewBox="0 0 32 32" fill="none" xmlns="http://www.w3.org/2000/svg">
  <g opacity=".8" clip-path="url(#a)">
    <path d="M16 14.4a8 8 0 0 1 8 8V32h-3.2v-9.6a4.8 4.8 0 0 0-4.518-4.792L16 17.6a4.8 4.8 0 0 0-4.792 4.518l-.008.282V32H8v-9.6a8 8 0 0 1 8-8ZM5.6 19.2c.446 0 .88.053 1.296.15a9.515 9.515 0 0 0-.482 2.52l-.014.53v.138a2.388 2.388 0 0 0-.57-.128l-.23-.01a2.4 2.4 0 0 0-2.389 2.17l-.011.23V32H0v-7.2a5.6 5.6 0 0 1 5.6-5.6Zm20.8 0a5.6 5.6 0 0 1 5.6 5.6V32h-3.2v-7.2a2.4 2.4 0 0 0-2.17-2.389l-.23-.011c-.28 0-.549.048-.8.136V22.4a9.55 9.55 0 0 0-.494-3.046A5.458 5.458 0 0 1 26.4 19.2ZM5.6 9.6a4 4 0 1 1 0 8 4 4 0 0 1 0-8Zm20.8 0a4 4 0 1 1 0 8 4 4 0 0 1 0-8ZM5.6 12.8a.8.8 0 1 0 0 1.6.8.8 0 0 0 0-1.6Zm20.8 0a.8.8 0 1 0 0 1.6.8.8 0 0 0 0-1.6ZM16 0a6.4 6.4 0 1 1 0 12.8A6.4 6.4 0 0 1 16 0Zm0 3.2a3.2 3.2 0 1 0 0 6.4 3.2 3.2 0 0 0 0-6.4Z" fill="#fff"/>
  </g>
  <defs>
    <clipPath id="a">
      <path fill="#fff" d="M0 0h32v32H0z"/>
    </clipPath>
  </defs>
</svg>
