<svg width="32" height="32" viewBox="0 0 32 32" fill="none" xmlns="http://www.w3.org/2000/svg">
  <path d="M16 14.4C18.1217 14.4 20.1566 15.2429 21.6569 16.7431C23.1571 18.2434 24 20.2783 24 22.4V32H8V22.4C8 20.2783 8.84285 18.2434 10.3431 16.7431C11.8434 15.2429 13.8783 14.4 16 14.4ZM5.2608 19.2096C5.00617 20.0685 4.85576 20.9548 4.8128 21.8496L4.8 22.4V32H1.46107e-07V24.8C-0.000314891 23.4201 0.508845 22.0887 1.42982 21.0611C2.35079 20.0336 3.61872 19.3822 4.9904 19.232L5.2608 19.2096ZM26.7392 19.2096C28.1631 19.2964 29.5002 19.9231 30.4778 20.962C31.4554 22.0008 31.9998 23.3735 32 24.8V32H27.2V22.4C27.2 21.2912 27.04 20.2208 26.7392 19.2096ZM5.6 9.6C6.66087 9.6 7.67828 10.0214 8.42843 10.7716C9.17857 11.5217 9.6 12.5391 9.6 13.6C9.6 14.6609 9.17857 15.6783 8.42843 16.4284C7.67828 17.1786 6.66087 17.6 5.6 17.6C4.53913 17.6 3.52172 17.1786 2.77157 16.4284C2.02143 15.6783 1.6 14.6609 1.6 13.6C1.6 12.5391 2.02143 11.5217 2.77157 10.7716C3.52172 10.0214 4.53913 9.6 5.6 9.6ZM26.4 9.6C27.4609 9.6 28.4783 10.0214 29.2284 10.7716C29.9786 11.5217 30.4 12.5391 30.4 13.6C30.4 14.6609 29.9786 15.6783 29.2284 16.4284C28.4783 17.1786 27.4609 17.6 26.4 17.6C25.3391 17.6 24.3217 17.1786 23.5716 16.4284C22.8214 15.6783 22.4 14.6609 22.4 13.6C22.4 12.5391 22.8214 11.5217 23.5716 10.7716C24.3217 10.0214 25.3391 9.6 26.4 9.6ZM16 0C17.6974 0 19.3253 0.674284 20.5255 1.87452C21.7257 3.07475 22.4 4.70261 22.4 6.4C22.4 8.09739 21.7257 9.72525 20.5255 10.9255C19.3253 12.1257 17.6974 12.8 16 12.8C14.3026 12.8 12.6747 12.1257 11.4745 10.9255C10.2743 9.72525 9.6 8.09739 9.6 6.4C9.6 4.70261 10.2743 3.07475 11.4745 1.87452C12.6747 0.674284 14.3026 0 16 0Z" fill="white"/>
</svg>
