<svg width="68" height="48" viewBox="0 0 68 48" fill="none" xmlns="http://www.w3.org/2000/svg">
  <path d="M31.333 4h-8C22.596 4 22 4.596 22 5.333v8c0 .738.596 1.334 1.333 1.334h8c.738 0 1.334-.596 1.334-1.334v-8c0-.737-.596-1.333-1.334-1.333ZM30 12h-5.333V6.667H30V12Zm14.667 5.333h-8c-.738 0-1.334.596-1.334 1.334v8c0 .737.596 1.333 1.334 1.333h8c.737 0 1.333-.596 1.333-1.333v-8c0-.738-.596-1.334-1.333-1.334Zm-1.334 8H38V20h5.333v5.333ZM40.667 4a5.339 5.339 0 0 0-5.334 5.333 5.339 5.339 0 0 0 5.334 5.334A5.339 5.339 0 0 0 46 9.333 5.339 5.339 0 0 0 40.667 4Zm0 8A2.67 2.67 0 0 1 38 9.333a2.67 2.67 0 0 1 2.667-2.666 2.67 2.67 0 0 1 2.666 2.666A2.67 2.67 0 0 1 40.667 12Zm-13.334 5.333A5.339 5.339 0 0 0 22 22.667 5.339 5.339 0 0 0 27.333 28a5.339 5.339 0 0 0 5.334-5.333 5.339 5.339 0 0 0-5.334-5.334Zm0 8a2.67 2.67 0 0 1-2.666-2.666A2.67 2.67 0 0 1 27.333 20 2.67 2.67 0 0 1 30 22.667a2.67 2.67 0 0 1-2.667 2.666Zm-20.82 9.714V45H4.469v-9.953h2.044Zm3.062 0v1.606h-8.12v-1.606h8.12Zm3.808 10.09a4.13 4.13 0 0 1-1.545-.274 3.394 3.394 0 0 1-1.162-.772 3.431 3.431 0 0 1-.725-1.142 3.844 3.844 0 0 1-.253-1.394v-.274c0-.56.08-1.073.24-1.538.159-.465.387-.868.683-1.21.3-.342.665-.604 1.094-.786a3.59 3.59 0 0 1 1.45-.28c.523 0 .988.086 1.394.26a2.73 2.73 0 0 1 1.018.738c.278.319.488.702.63 1.148.14.442.211.934.211 1.477v.82h-5.879v-1.312h3.944v-.15c0-.274-.05-.518-.15-.732a1.161 1.161 0 0 0-.438-.52c-.195-.127-.446-.191-.751-.191-.26 0-.483.057-.67.17-.187.115-.34.274-.458.48-.114.204-.2.446-.26.724a4.608 4.608 0 0 0-.082.902v.274c0 .296.04.57.123.82.086.25.207.467.362.65.16.182.351.323.574.423.228.1.486.15.773.15.355 0 .686-.068.991-.204.31-.142.577-.354.8-.636l.957 1.039a2.913 2.913 0 0 1-.636.643 3.397 3.397 0 0 1-.957.505c-.374.128-.8.192-1.278.192Zm6.125-6.002V45h-1.976v-7.397h1.853l.123 1.532Zm-.274 1.907h-.547c0-.515.062-.989.185-1.422.128-.437.312-.816.554-1.135a2.55 2.55 0 0 1 .909-.752c.36-.177.777-.266 1.25-.266.33 0 .63.05.903.15.274.096.508.249.704.458.2.205.356.474.465.807.11.328.164.722.164 1.183V45h-1.969v-4.717c0-.337-.045-.597-.136-.78a.776.776 0 0 0-.39-.382 1.46 1.46 0 0 0-.595-.11c-.255 0-.478.053-.67.158-.186.105-.341.25-.464.437a1.956 1.956 0 0 0-.274.643c-.059.246-.089.51-.089.793Zm4.403-.226-.704.09c0-.484.059-.933.177-1.347a3.41 3.41 0 0 1 .54-1.094 2.49 2.49 0 0 1 .896-.732 2.717 2.717 0 0 1 1.23-.266c.356 0 .68.052.971.157.292.1.54.262.745.485.21.22.37.506.479.862.114.355.17.79.17 1.305V45h-1.975v-4.724c0-.341-.046-.601-.137-.779a.717.717 0 0 0-.383-.376 1.44 1.44 0 0 0-.587-.11c-.237 0-.445.049-.623.144a1.238 1.238 0 0 0-.444.383 1.752 1.752 0 0 0-.266.574c-.06.215-.09.45-.09.704Zm10.021 2.516v-3.295c0-.237-.038-.44-.116-.608a.865.865 0 0 0-.362-.404c-.16-.095-.367-.143-.622-.143-.22 0-.408.039-.568.116a.822.822 0 0 0-.369.321.888.888 0 0 0-.13.486h-1.968c0-.315.072-.613.218-.896.146-.282.358-.53.636-.745a3.13 3.13 0 0 1 .991-.513c.388-.123.82-.184 1.299-.184.574 0 1.085.096 1.531.287a2.34 2.34 0 0 1 1.053.861c.26.383.39.862.39 1.436v3.165c0 .405.025.738.075.998.05.255.123.478.219.67V45h-1.99a2.843 2.843 0 0 1-.218-.752 6.192 6.192 0 0 1-.069-.916Zm.26-2.837.014 1.114h-1.1a2.3 2.3 0 0 0-.678.09 1.26 1.26 0 0 0-.471.252.977.977 0 0 0-.274.37 1.277 1.277 0 0 0-.082.464c0 .169.039.321.116.458.078.132.19.237.335.315.146.072.317.109.513.109a1.6 1.6 0 0 0 .773-.178c.218-.118.387-.264.505-.437.123-.173.187-.337.192-.492l.52.834c-.074.186-.174.38-.301.58-.124.201-.28.39-.472.568a2.434 2.434 0 0 1-.69.43c-.27.11-.588.165-.958.165-.469 0-.895-.094-1.278-.28a2.33 2.33 0 0 1-.902-.787 2.063 2.063 0 0 1-.328-1.148c0-.387.072-.732.218-1.032.146-.301.36-.554.643-.76a3.014 3.014 0 0 1 1.073-.47c.428-.11.925-.165 1.49-.165h1.142Zm6.863-2.892v1.395h-4.306v-1.395h4.306Zm-3.24-1.825h1.969v6.994c0 .214.027.378.082.492a.493.493 0 0 0 .26.239c.114.04.257.062.43.062.123 0 .233-.005.328-.014.1-.014.185-.028.253-.041l.007 1.449c-.168.055-.35.098-.547.13a4.056 4.056 0 0 1-.65.048c-.432 0-.81-.07-1.134-.212a1.563 1.563 0 0 1-.738-.697c-.173-.32-.26-.739-.26-1.258v-7.192Zm6.44 1.825V45h-1.976v-7.397h1.975Zm-2.1-1.927a.93.93 0 0 1 .302-.711c.2-.187.469-.28.806-.28.333 0 .6.093.8.28a.92.92 0 0 1 .308.71.92.92 0 0 1-.308.712c-.2.187-.467.28-.8.28-.337 0-.606-.093-.806-.28a.93.93 0 0 1-.301-.711Zm6.782 7.923c.242 0 .456-.046.643-.137.187-.096.332-.228.437-.397a1.16 1.16 0 0 0 .171-.608h1.853c-.005.52-.144.982-.417 1.388-.274.4-.64.718-1.101.95-.46.228-.975.342-1.545.342-.574 0-1.075-.096-1.504-.287a2.936 2.936 0 0 1-1.06-.793 3.475 3.475 0 0 1-.635-1.19 4.914 4.914 0 0 1-.212-1.463v-.198c0-.524.07-1.012.212-1.463.141-.456.353-.852.636-1.19a2.902 2.902 0 0 1 1.06-.8c.423-.19.92-.286 1.49-.286.605 0 1.136.116 1.592.348.46.233.82.566 1.08.998.265.429.399.937.404 1.525h-1.853a1.542 1.542 0 0 0-.157-.67 1.182 1.182 0 0 0-1.1-.663c-.288 0-.523.061-.705.185a1.179 1.179 0 0 0-.424.492c-.1.205-.17.44-.212.704-.036.26-.054.533-.054.82v.198c0 .287.018.563.054.827.037.265.105.5.206.704.104.206.248.367.43.486.182.118.42.178.711.178Zm8.237-.267v-3.295c0-.237-.038-.44-.116-.608a.865.865 0 0 0-.362-.404c-.16-.095-.367-.143-.622-.143-.219 0-.408.039-.568.116a.822.822 0 0 0-.369.321.888.888 0 0 0-.13.486h-1.968c0-.315.073-.613.218-.896.146-.282.358-.53.636-.745a3.13 3.13 0 0 1 .991-.513c.388-.123.82-.184 1.3-.184.573 0 1.084.096 1.53.287a2.34 2.34 0 0 1 1.053.861c.26.383.39.862.39 1.436v3.165c0 .405.025.738.075.998.05.255.123.478.219.67V45h-1.99a2.843 2.843 0 0 1-.218-.752 6.192 6.192 0 0 1-.069-.916Zm.26-2.837.014 1.114h-1.1a2.3 2.3 0 0 0-.677.09 1.26 1.26 0 0 0-.472.252.977.977 0 0 0-.274.37 1.277 1.277 0 0 0-.082.464c0 .169.04.321.116.458.078.132.19.237.335.315.146.072.317.109.513.109a1.6 1.6 0 0 0 .773-.178c.218-.118.387-.264.506-.437.123-.173.186-.337.19-.492l.52.834c-.072.186-.173.38-.3.58-.123.201-.28.39-.472.568a2.434 2.434 0 0 1-.69.43c-.27.11-.588.165-.958.165-.469 0-.895-.094-1.278-.28a2.33 2.33 0 0 1-.902-.787 2.063 2.063 0 0 1-.328-1.148c0-.387.073-.732.218-1.032.146-.301.36-.554.643-.76a3.014 3.014 0 0 1 1.073-.47c.429-.11.925-.165 1.49-.165h1.142Zm7.24 2.461a.64.64 0 0 0-.124-.383c-.082-.114-.234-.218-.458-.314-.218-.1-.535-.192-.95-.274a7.41 7.41 0 0 1-1.046-.307 3.626 3.626 0 0 1-.834-.458 1.991 1.991 0 0 1-.547-.63 1.748 1.748 0 0 1-.198-.84c0-.31.066-.602.198-.875.137-.273.33-.515.581-.725a2.75 2.75 0 0 1 .93-.499 3.92 3.92 0 0 1 1.244-.184c.643 0 1.194.102 1.655.307.464.206.82.488 1.066.848.25.355.376.761.376 1.217h-1.969c0-.191-.04-.362-.123-.513a.812.812 0 0 0-.369-.362c-.164-.091-.378-.137-.642-.137-.22 0-.408.039-.568.116a.87.87 0 0 0-.37.301.724.724 0 0 0-.122.41.68.68 0 0 0 .068.308.76.76 0 0 0 .24.24c.109.072.25.14.423.204.178.06.397.114.657.164.533.11 1.009.253 1.428.431.42.173.752.41.998.71.246.297.37.687.37 1.17 0 .328-.073.629-.22.902a2.177 2.177 0 0 1-.628.718c-.274.2-.602.358-.985.472a4.611 4.611 0 0 1-1.278.164c-.688 0-1.271-.123-1.75-.37-.474-.245-.834-.558-1.08-.936a2.18 2.18 0 0 1-.362-1.176h1.866c.01.27.077.486.205.65.132.164.298.282.5.355.204.073.425.11.662.11.255 0 .467-.035.636-.103a.904.904 0 0 0 .383-.287.694.694 0 0 0 .136-.424Z" fill="#fff"/>
</svg>
