<svg width="115" height="115" viewBox="0 0 115 115" fill="none" xmlns="http://www.w3.org/2000/svg">
  <g filter="url(#a)">
    <rect x="4" width="107" height="107" rx="53.5" fill="#fff"/>
    <path d="M57.5 80.25c14.773 0 26.75-11.977 26.75-26.75 0-14.774-11.977-26.75-26.75-26.75-14.774 0-26.75 11.976-26.75 26.75 0 14.773 11.976 26.75 26.75 26.75Z" fill="red"/>
    <path d="M57.5 10.7c-23.638 0-42.8 19.162-42.8 42.8 0 23.638 19.162 42.8 42.8 42.8 23.638 0 42.8-19.162 42.8-42.8 0-23.638-19.162-42.8-42.8-42.8ZM20.05 53.5c0-20.683 16.767-37.45 37.45-37.45 20.683 0 37.45 16.767 37.45 37.45 0 20.683-16.767 37.45-37.45 37.45-20.683 0-37.45-16.767-37.45-37.45Z" fill="red"/>
  </g>
  <defs>
    <filter id="a" x="0" y="0" width="115" height="115" filterUnits="userSpaceOnUse" color-interpolation-filters="sRGB">
      <feFlood flood-opacity="0" result="BackgroundImageFix"/>
      <feColorMatrix in="SourceAlpha" values="0 0 0 0 0 0 0 0 0 0 0 0 0 0 0 0 0 0 127 0" result="hardAlpha"/>
      <feOffset dy="4"/>
      <feGaussianBlur stdDeviation="2"/>
      <feComposite in2="hardAlpha" operator="out"/>
      <feColorMatrix values="0 0 0 0 0 0 0 0 0 0 0 0 0 0 0 0 0 0 0.25 0"/>
      <feBlend in2="BackgroundImageFix" result="effect1_dropShadow_226_3884"/>
      <feBlend in="SourceGraphic" in2="effect1_dropShadow_226_3884" result="shape"/>
    </filter>
  </defs>
</svg>

